<mxfile host="app.diagrams.net" modified="2023-11-24T15:43:52.756Z" agent="Mozilla/5.0 (Windows NT 10.0; Win64; x64; rv:120.0) Gecko/20100101 Firefox/120.0" etag="BEtDUg5UZadQGhvLtKkr" version="22.1.3" type="device">
  <diagram id="C5RBs43oDa-KdzZeNtuy" name="Page-1">
    <mxGraphModel dx="1728" dy="952" grid="1" gridSize="10" guides="1" tooltips="1" connect="1" arrows="1" fold="1" page="1" pageScale="1" pageWidth="827" pageHeight="1169" math="0" shadow="0">
      <root>
        <mxCell id="WIyWlLk6GJQsqaUBKTNV-0" />
        <mxCell id="WIyWlLk6GJQsqaUBKTNV-1" parent="WIyWlLk6GJQsqaUBKTNV-0" />
        <mxCell id="85lq-mTHCfEE5HqbNbib-0" value="" style="edgeStyle=orthogonalEdgeStyle;rounded=0;orthogonalLoop=1;jettySize=auto;html=1;" edge="1" parent="WIyWlLk6GJQsqaUBKTNV-1" source="85lq-mTHCfEE5HqbNbib-1">
          <mxGeometry relative="1" as="geometry">
            <mxPoint x="158.83333333333326" y="150" as="targetPoint" />
          </mxGeometry>
        </mxCell>
        <mxCell id="85lq-mTHCfEE5HqbNbib-1" value="Salary.java&lt;br&gt;applyPension" style="strokeWidth=2;html=1;shape=mxgraph.flowchart.start_1;whiteSpace=wrap;" vertex="1" parent="WIyWlLk6GJQsqaUBKTNV-1">
          <mxGeometry x="104.38" y="40" width="108.75" height="60" as="geometry" />
        </mxCell>
        <mxCell id="85lq-mTHCfEE5HqbNbib-2" value="Has arguments:&lt;br&gt; rateO&lt;br&gt;yearlySalary" style="strokeWidth=2;html=1;shape=mxgraph.flowchart.annotation_2;align=left;labelPosition=right;pointerEvents=1;" vertex="1" parent="WIyWlLk6GJQsqaUBKTNV-1">
          <mxGeometry x="230" y="40" width="50" height="60" as="geometry" />
        </mxCell>
        <mxCell id="85lq-mTHCfEE5HqbNbib-3" value="End" style="strokeWidth=2;html=1;shape=mxgraph.flowchart.terminator;whiteSpace=wrap;" vertex="1" parent="WIyWlLk6GJQsqaUBKTNV-1">
          <mxGeometry x="108.76000000000002" y="510" width="100" height="60" as="geometry" />
        </mxCell>
        <mxCell id="85lq-mTHCfEE5HqbNbib-4" value="" style="edgeStyle=orthogonalEdgeStyle;rounded=0;orthogonalLoop=1;jettySize=auto;html=1;" edge="1" parent="WIyWlLk6GJQsqaUBKTNV-1" source="85lq-mTHCfEE5HqbNbib-5" target="85lq-mTHCfEE5HqbNbib-9">
          <mxGeometry relative="1" as="geometry" />
        </mxCell>
        <mxCell id="85lq-mTHCfEE5HqbNbib-5" value="Set totalPension =&lt;br&gt;applyPaymentBands(grossSalary, pensionBands)" style="shape=process;whiteSpace=wrap;html=1;backgroundOutline=1;" vertex="1" parent="WIyWlLk6GJQsqaUBKTNV-1">
          <mxGeometry x="33.22" y="237.5" width="251.06" height="65" as="geometry" />
        </mxCell>
        <mxCell id="85lq-mTHCfEE5HqbNbib-6" value="" style="edgeStyle=orthogonalEdgeStyle;rounded=0;orthogonalLoop=1;jettySize=auto;html=1;" edge="1" parent="WIyWlLk6GJQsqaUBKTNV-1" source="85lq-mTHCfEE5HqbNbib-7" target="85lq-mTHCfEE5HqbNbib-5">
          <mxGeometry relative="1" as="geometry" />
        </mxCell>
        <mxCell id="85lq-mTHCfEE5HqbNbib-7" value="Set pensionBands = rateIO.pension" style="shape=process;whiteSpace=wrap;html=1;backgroundOutline=1;" vertex="1" parent="WIyWlLk6GJQsqaUBKTNV-1">
          <mxGeometry x="63.22" y="150" width="191.06" height="60" as="geometry" />
        </mxCell>
        <mxCell id="85lq-mTHCfEE5HqbNbib-8" value="" style="edgeStyle=orthogonalEdgeStyle;rounded=0;orthogonalLoop=1;jettySize=auto;html=1;" edge="1" parent="WIyWlLk6GJQsqaUBKTNV-1" source="85lq-mTHCfEE5HqbNbib-9" target="85lq-mTHCfEE5HqbNbib-11">
          <mxGeometry relative="1" as="geometry" />
        </mxCell>
        <mxCell id="85lq-mTHCfEE5HqbNbib-9" value="Set totalDeductions = totalDeductions + totalPension" style="whiteSpace=wrap;html=1;strokeWidth=2;rounded=1;arcSize=12;" vertex="1" parent="WIyWlLk6GJQsqaUBKTNV-1">
          <mxGeometry x="58.75" y="330" width="200" height="60" as="geometry" />
        </mxCell>
        <mxCell id="85lq-mTHCfEE5HqbNbib-10" value="" style="edgeStyle=orthogonalEdgeStyle;rounded=0;orthogonalLoop=1;jettySize=auto;html=1;" edge="1" parent="WIyWlLk6GJQsqaUBKTNV-1" source="85lq-mTHCfEE5HqbNbib-11" target="85lq-mTHCfEE5HqbNbib-3">
          <mxGeometry relative="1" as="geometry" />
        </mxCell>
        <mxCell id="85lq-mTHCfEE5HqbNbib-11" value="Set netSalary = netSalary - totalPension" style="whiteSpace=wrap;html=1;strokeWidth=2;rounded=1;arcSize=12;" vertex="1" parent="WIyWlLk6GJQsqaUBKTNV-1">
          <mxGeometry x="58.76" y="420" width="200" height="60" as="geometry" />
        </mxCell>
        <mxCell id="85lq-mTHCfEE5HqbNbib-12" value="" style="edgeStyle=orthogonalEdgeStyle;rounded=0;orthogonalLoop=1;jettySize=auto;html=1;" edge="1" parent="WIyWlLk6GJQsqaUBKTNV-1" source="85lq-mTHCfEE5HqbNbib-13">
          <mxGeometry relative="1" as="geometry">
            <mxPoint x="485.61333333333323" y="150" as="targetPoint" />
          </mxGeometry>
        </mxCell>
        <mxCell id="85lq-mTHCfEE5HqbNbib-13" value="&lt;div&gt;Salary.java&lt;/div&gt;&lt;div&gt;applyParking&lt;br&gt;&lt;/div&gt;" style="strokeWidth=2;html=1;shape=mxgraph.flowchart.start_1;whiteSpace=wrap;" vertex="1" parent="WIyWlLk6GJQsqaUBKTNV-1">
          <mxGeometry x="431.15999999999997" y="40" width="108.75" height="60" as="geometry" />
        </mxCell>
        <mxCell id="85lq-mTHCfEE5HqbNbib-14" value="Has arguments:&lt;br&gt; rateO&lt;br&gt;yearlySalary" style="strokeWidth=2;html=1;shape=mxgraph.flowchart.annotation_2;align=left;labelPosition=right;pointerEvents=1;" vertex="1" parent="WIyWlLk6GJQsqaUBKTNV-1">
          <mxGeometry x="556.78" y="40" width="50" height="60" as="geometry" />
        </mxCell>
        <mxCell id="85lq-mTHCfEE5HqbNbib-15" value="End" style="strokeWidth=2;html=1;shape=mxgraph.flowchart.terminator;whiteSpace=wrap;" vertex="1" parent="WIyWlLk6GJQsqaUBKTNV-1">
          <mxGeometry x="435.53999999999996" y="510" width="100" height="60" as="geometry" />
        </mxCell>
        <mxCell id="85lq-mTHCfEE5HqbNbib-16" value="" style="edgeStyle=orthogonalEdgeStyle;rounded=0;orthogonalLoop=1;jettySize=auto;html=1;" edge="1" parent="WIyWlLk6GJQsqaUBKTNV-1" source="85lq-mTHCfEE5HqbNbib-17" target="85lq-mTHCfEE5HqbNbib-21">
          <mxGeometry relative="1" as="geometry" />
        </mxCell>
        <mxCell id="85lq-mTHCfEE5HqbNbib-17" value="Set totalParking = parkingMonthly * 12" style="shape=process;whiteSpace=wrap;html=1;backgroundOutline=1;" vertex="1" parent="WIyWlLk6GJQsqaUBKTNV-1">
          <mxGeometry x="360" y="237.5" width="251.06" height="65" as="geometry" />
        </mxCell>
        <mxCell id="85lq-mTHCfEE5HqbNbib-18" value="" style="edgeStyle=orthogonalEdgeStyle;rounded=0;orthogonalLoop=1;jettySize=auto;html=1;" edge="1" parent="WIyWlLk6GJQsqaUBKTNV-1" source="85lq-mTHCfEE5HqbNbib-19" target="85lq-mTHCfEE5HqbNbib-17">
          <mxGeometry relative="1" as="geometry" />
        </mxCell>
        <mxCell id="85lq-mTHCfEE5HqbNbib-19" value="Set parkingMonthly = rateIO.monthlyParking" style="shape=process;whiteSpace=wrap;html=1;backgroundOutline=1;" vertex="1" parent="WIyWlLk6GJQsqaUBKTNV-1">
          <mxGeometry x="390" y="150" width="191.06" height="60" as="geometry" />
        </mxCell>
        <mxCell id="85lq-mTHCfEE5HqbNbib-20" value="" style="edgeStyle=orthogonalEdgeStyle;rounded=0;orthogonalLoop=1;jettySize=auto;html=1;" edge="1" parent="WIyWlLk6GJQsqaUBKTNV-1" source="85lq-mTHCfEE5HqbNbib-21" target="85lq-mTHCfEE5HqbNbib-23">
          <mxGeometry relative="1" as="geometry" />
        </mxCell>
        <mxCell id="85lq-mTHCfEE5HqbNbib-21" value="Set totalDeductions = totalDeductions + totalParking" style="whiteSpace=wrap;html=1;strokeWidth=2;rounded=1;arcSize=12;" vertex="1" parent="WIyWlLk6GJQsqaUBKTNV-1">
          <mxGeometry x="385.53" y="330" width="200" height="60" as="geometry" />
        </mxCell>
        <mxCell id="85lq-mTHCfEE5HqbNbib-22" value="" style="edgeStyle=orthogonalEdgeStyle;rounded=0;orthogonalLoop=1;jettySize=auto;html=1;" edge="1" parent="WIyWlLk6GJQsqaUBKTNV-1" source="85lq-mTHCfEE5HqbNbib-23" target="85lq-mTHCfEE5HqbNbib-15">
          <mxGeometry relative="1" as="geometry" />
        </mxCell>
        <mxCell id="85lq-mTHCfEE5HqbNbib-23" value="Set netSalary = netSalary - totalParking" style="whiteSpace=wrap;html=1;strokeWidth=2;rounded=1;arcSize=12;" vertex="1" parent="WIyWlLk6GJQsqaUBKTNV-1">
          <mxGeometry x="385.53" y="420" width="200" height="60" as="geometry" />
        </mxCell>
      </root>
    </mxGraphModel>
  </diagram>
</mxfile>
